# xmcd
#
# Track frame offsets:
#	150
#	18642
#	36762
#	55202
#
# Disc length: 978 seconds
#
# Revision: 0
# Processed by: cddbd v1.4PL0 Copyright (c) Steve Scherf et al.
# Submitted via: dBpowerAMP V4.0
#
DISCID=2d03d004
DTITLE=Chant - Something To Give
DYEAR=1997
DGENRE=Counrty
TTITLE0=Something To Give (V. Jepas/D. Porlas)
TTITLE1=Something To Give (Unplugged Mix)
TTITLE2=Will You Still Love Me Tomorrow (J. Goffin/C. King)
TTITLE3=Will You STill Love Me Tomorrow (Unplugged Mix)
EXTD=
EXTT0=
EXTT1=
EXTT2=
EXTT3=
PLAYORDER=
